# xmcd
# Copyright (C) 1995-1998 Ti Kan
#
# Track frame offsets:
#       150
#       26122
#       48825
#       71850
#
# Disc length: 1205 seconds
#
# Revision: 0
# Processed by: cddbd v1.4b42PL1 Copyright (c) Steve Scherf et al.
# Submitted via: CD-Transfer v1.0
#
DISCID=3304b304
DTITLE=Entr'acte - Entr'acte
DYEAR=2000
DGENRE=
TTITLE0=A Kindred
TTITLE1=Sad Child
TTITLE2=In Winter Still
TTITLE3=Rain
EXTD=
EXTT0=
EXTT1=
EXTT2=
EXTT3=
PLAYORDER=
